<?xml version="1.0" encoding="utf-8"?>
<!-- Generator: Adobe Illustrator 25.2.3, SVG Export Plug-In . SVG Version: 6.00 Build 0)  -->
<svg version="1.1" id="Слой_1" xmlns="http://www.w3.org/2000/svg" xmlns:xlink="http://www.w3.org/1999/xlink" x="0px" y="0px"
	 viewBox="0 0 1024.1 433.7" style="enable-background:new 0 0 1024.1 433.7;" xml:space="preserve">
<style type="text/css">
	.st0{fill:none;}
	.st1{fill:#F5F5F5;}
</style>
<rect id="backgroundrect" x="-6" y="-38.1" class="st0" width="1024" height="512"/>
<g>
	<g id="svg_1">
		<polygon id="XMLID_18_" class="st1" points="187,414 187,376.6 104.3,376.6 104.3,414 104.3,433.7 187,433.7 		"/>
		<g id="svg_2">
			<polygon id="XMLID_17_" class="st1" points="0,339.1 0,357.9 0,376.6 0,395.3 0,414 0,433.7 82.6,433.7 82.6,414 82.6,395.3 
				82.6,376.6 82.6,357.9 82.6,339.1 82.6,301.7 0,301.7 			"/>
			<polygon id="XMLID_16_" class="st1" points="82.6,151.9 82.6,114.4 0,114.4 0,151.9 0,170.6 82.6,170.6 			"/>
			<polygon id="XMLID_15_" class="st1" points="82.6,264.2 82.6,245.5 82.6,226.8 82.6,189.3 0,189.3 0,226.8 0,245.5 0,264.2 
				0,283 82.6,283 			"/>
			<polygon id="XMLID_14_" class="st1" points="187,264.2 187,245.5 187,226.8 187,189.3 104.3,189.3 104.3,226.8 104.3,245.5 
				104.3,264.2 104.3,283 187,283 			"/>
			<polygon id="XMLID_13_" class="st1" points="187,339.1 187,301.7 104.3,301.7 104.3,339.1 104.3,357.9 187,357.9 			"/>
			<polygon id="XMLID_12_" class="st1" points="187,151.9 187,133.2 187,114.4 187,77 104.3,77 104.3,114.4 104.3,133.2 
				104.3,151.9 104.3,170.6 187,170.6 			"/>
			<polygon id="XMLID_11_" class="st1" points="187,39.5 187,2.1 104.3,2.1 104.3,39.5 104.3,58.3 187,58.3 			"/>
			<rect id="XMLID_10_" x="208.7" y="301.7" class="st1" width="82.6" height="18.7"/>
			<polygon id="XMLID_9_" class="st1" points="291.3,414 291.3,395.3 291.3,376.6 291.3,339.1 208.7,339.1 208.7,376.6 208.7,395.3 
				208.7,414 208.7,433.7 291.3,433.7 			"/>
			<rect id="XMLID_8_" x="313" y="189.3" class="st1" width="82.6" height="18.7"/>
			<polygon id="XMLID_7_" class="st1" points="395.7,414 395.7,395.3 395.7,376.6 395.7,357.9 395.7,339.1 395.7,301.7 313,301.7 
				313,339.1 313,357.9 313,376.6 313,395.3 313,414 313,433.7 395.7,433.7 			"/>
			<polygon id="XMLID_6_" class="st1" points="395.7,264.2 395.7,226.8 313,226.8 313,264.2 313,283 395.7,283 			"/>
			<polygon id="XMLID_5_" class="st1" points="500,189.3 500,151.9 417.4,151.9 417.4,189.3 417.4,208.1 500,208.1 			"/>
			<rect id="XMLID_4_" x="417.4" y="39.5" class="st1" width="82.6" height="18.7"/>
			<polygon id="XMLID_3_" class="st1" points="500,114.4 500,77 417.4,77 417.4,114.4 417.4,133.2 500,133.2 			"/>
			<polygon id="XMLID_2_" class="st1" points="500,301.7 500,283 500,264.2 500,226.8 417.4,226.8 417.4,264.2 417.4,283 
				417.4,301.7 417.4,320.4 500,320.4 			"/>
			<polygon id="XMLID_1_" class="st1" points="500,414 500,395.3 500,376.6 500,339.1 417.4,339.1 417.4,376.6 417.4,395.3 
				417.4,414 417.4,433.7 500,433.7 			"/>
		</g>
	</g>
	<g id="svg_3">
		<polygon id="svg_4" class="st1" points="711.1,411.9 711.1,374.5 628.4,374.5 628.4,411.9 628.4,431.6 711.1,431.6 		"/>
		<g id="svg_5">
			<polygon id="XMLID_19_" class="st1" points="524.1,337 524.1,355.8 524.1,374.5 524.1,393.2 524.1,411.9 524.1,431.6 
				606.7,431.6 606.7,411.9 606.7,393.2 606.7,374.5 606.7,355.8 606.7,337 606.7,299.6 524.1,299.6 			"/>
			<polygon id="XMLID_20_" class="st1" points="606.7,149.8 606.7,112.3 524.1,112.3 524.1,149.8 524.1,168.5 606.7,168.5 			"/>
			<polygon id="XMLID_21_" class="st1" points="606.7,262.1 606.7,243.4 606.7,224.7 606.7,187.2 524.1,187.2 524.1,224.7 
				524.1,243.4 524.1,262.1 524.1,280.9 606.7,280.9 			"/>
			<polygon id="XMLID_22_" class="st1" points="711.1,262.1 711.1,243.4 711.1,224.7 711.1,187.2 628.4,187.2 628.4,224.7 
				628.4,243.4 628.4,262.1 628.4,280.9 711.1,280.9 			"/>
			<polygon id="XMLID_23_" class="st1" points="711.1,337 711.1,299.6 628.4,299.6 628.4,337 628.4,355.8 711.1,355.8 			"/>
			<polygon id="XMLID_24_" class="st1" points="711.1,149.8 711.1,131.1 711.1,112.3 711.1,74.9 628.4,74.9 628.4,112.3 
				628.4,131.1 628.4,149.8 628.4,168.5 711.1,168.5 			"/>
			<polygon id="XMLID_25_" class="st1" points="711.1,37.4 711.1,0 628.4,0 628.4,37.4 628.4,56.2 711.1,56.2 			"/>
			<rect id="XMLID_26_" x="732.8" y="299.6" class="st1" width="82.6" height="18.7"/>
			<polygon id="XMLID_27_" class="st1" points="815.4,411.9 815.4,393.2 815.4,374.5 815.4,337 732.8,337 732.8,374.5 732.8,393.2 
				732.8,411.9 732.8,431.6 815.4,431.6 			"/>
			<rect id="XMLID_28_" x="837.1" y="187.2" class="st1" width="82.6" height="18.7"/>
			<polygon id="XMLID_29_" class="st1" points="919.8,411.9 919.8,393.2 919.8,374.5 919.8,355.8 919.8,337 919.8,299.6 
				837.1,299.6 837.1,337 837.1,355.8 837.1,374.5 837.1,393.2 837.1,411.9 837.1,431.6 919.8,431.6 			"/>
			<polygon id="XMLID_30_" class="st1" points="919.8,262.1 919.8,224.7 837.1,224.7 837.1,262.1 837.1,280.9 919.8,280.9 			"/>
			<polygon id="XMLID_31_" class="st1" points="1024.1,187.2 1024.1,149.8 941.5,149.8 941.5,187.2 941.5,206 1024.1,206 			"/>
			<rect id="XMLID_32_" x="941.5" y="37.4" class="st1" width="82.6" height="18.7"/>
			<polygon id="XMLID_33_" class="st1" points="1024.1,112.3 1024.1,74.9 941.5,74.9 941.5,112.3 941.5,131.1 1024.1,131.1 			"/>
			<polygon id="XMLID_34_" class="st1" points="1024.1,299.6 1024.1,280.9 1024.1,262.1 1024.1,224.7 941.5,224.7 941.5,262.1 
				941.5,280.9 941.5,299.6 941.5,318.3 1024.1,318.3 			"/>
			<polygon id="XMLID_35_" class="st1" points="1024.1,411.9 1024.1,393.2 1024.1,374.5 1024.1,337 941.5,337 941.5,374.5 
				941.5,393.2 941.5,411.9 941.5,431.6 1024.1,431.6 			"/>
		</g>
	</g>
</g>
</svg>
